<?xml version="1.0" encoding="utf-8"?>
<!-- Generator: Adobe Illustrator 23.0.2, SVG Export Plug-In . SVG Version: 6.00 Build 0)  -->
<svg version="1.1" id="TV_2" xmlns="http://www.w3.org/2000/svg" xmlns:xlink="http://www.w3.org/1999/xlink" x="0px" y="0px"
	 viewBox="0 0 379.7 169.93" style="enable-background:new 0 0 379.7 169.93;" xml:space="preserve">
<style type="text/css">
	.st0{fill:#D21E1E;}
</style>
<g>
	<path class="st0" d="M332.18,0.01H221.38c-3.42,0-7.69,2.29-9.61,5.1l-23.83,35.37h135.18c5.41,0.06,10.57,2.77,11.22,9.15
		c0.75,7.9-7.68,15.13-15.48,15.13h-60.43c-3.42,0-7.72,2.28-9.58,5.1l-23.89,35.35h86.96c33.9,0,69.04-29.47,67.76-61.97
		C378.65,17.56,356,0.01,332.18,0.01"/>
	<path class="st0" d="M151.48,40.46H0L23.86,5.11C25.74,2.29,30.03,0,33.42,0h151.51l-23.86,35.35
		C159.2,38.2,154.88,40.46,151.48,40.46"/>
	<path class="st0" d="M63.79,157.05l9.67-92.3h45.04l-9.81,93.17l59.41-88.07c1.93-2.82,6.19-5.1,9.58-5.1h43.43l-67.48,100.07
		c-1.93,2.85-6.24,5.11-9.57,5.11H75.4C68.22,169.93,63.03,164.17,63.79,157.05"/>
	<path class="st0" d="M323.52,169.92H181.3l23.85-35.37c1.89-2.79,6.21-5.08,9.58-5.08h142.2l-23.86,35.34
		C331.19,167.67,326.91,169.92,323.52,169.92"/>
</g>
</svg>
